<?xml version='1.0' encoding='utf-8'?>
<svg xmlns="http://www.w3.org/2000/svg" viewBox="0 0 271 298" version="1.1" fill="#000">
    <title>Small</title>
    <g id="Small" stroke="none" fill="none" fill-rule="evenodd" stroke-width="1">
        <g id="Group-7" transform="translate(0, -0.0007)" fill="#000">
            <path d="M197.701676,85.8244784 C197.660676,89.4654784 197.257676,93.3734784 196.492676,97.5474784 C195.726676,101.722478 194.669676,105.530478 193.320676,108.972478 C191.969676,112.415478 190.424676,114.611478 188.681676,115.561478 C188.354676,115.739478 188.027676,115.863478 187.701676,115.928478 C186.293676,116.144478 185.219676,115.679478 184.480676,114.535478 C183.053676,112.328478 182.610676,108.538478 183.151676,103.159478 C183.689676,97.7824784 184.857676,92.5474784 186.650676,87.4534784 C188.443676,82.3604784 190.536676,79.1604784 192.935676,77.8534784 C193.698676,77.4374784 194.498676,77.3064784 195.334676,77.4584784 C195.765676,77.5554784 196.138676,77.8484784 196.455676,78.3394784 C197.327676,79.6884784 197.742676,82.1834784 197.701676,85.8244784 M87.2706761,24.0344784 C88.6136761,19.0114784 90.4176761,16.0314784 92.6806761,15.0974784 C94.4356761,14.4304784 95.7146761,14.9634784 96.5156761,16.6944784 C97.8966761,19.6784784 97.9526761,24.3244784 96.6876761,30.6324784 C95.5886761,36.1864784 93.2856761,41.1184784 89.7776761,45.4304784 C89.5296761,45.7624784 89.2366761,45.9974784 88.9006761,46.1364784 C88.3696761,46.3554784 87.8946761,46.3804784 87.4716761,46.2104784 C86.8126761,46.0254784 86.3606761,45.6674784 86.1156761,45.1374784 C85.9816761,44.8494784 85.9066761,44.5654784 85.8926761,44.2834784 C85.4666761,35.8094784 85.9256761,29.0584784 87.2706761,24.0344784 M255.368676,61.5684784 C254.919676,60.8734784 254.074676,60.5064784 252.830676,60.4644784 C251.589676,60.4234784 250.503676,60.6554784 249.577676,61.1594784 C248.868676,61.5464784 248.415676,62.0974784 248.215676,62.8144784 L247.070676,68.9084784 C246.536676,71.9624784 245.957676,74.9434784 245.333676,77.8524784 C244.708676,80.7624784 243.941676,83.3084784 243.030676,85.4894784 C242.118676,87.6714784 240.981676,89.1334784 239.619676,89.8754784 C238.038676,90.7364784 236.839676,90.5344784 236.020676,89.2674784 C234.435676,86.8164784 233.501676,81.5524784 233.217676,73.4734784 C232.932676,65.3964784 233.380676,56.7964784 234.556676,47.6724784 C235.734676,38.5504784 237.708676,30.8294784 240.478676,24.5134784 C241.489676,21.9744784 241.427676,19.8254784 240.291676,18.0684784 C238.469676,15.2494784 234.758676,13.5834784 229.157676,13.0704784 C223.556676,12.5594784 218.521676,13.5214784 214.053676,15.9564784 C209.966676,18.1834784 207.405676,21.3484784 206.371676,25.4474784 C205.588676,28.9124784 205.437676,33.1244784 205.918676,38.0844784 C206.397676,43.0434784 207.146676,48.5344784 208.164676,54.5534784 C208.926676,59.4984784 209.647676,64.6594784 210.323676,70.0364784 C210.260676,70.6234784 209.928676,71.0804784 209.329676,71.4064784 C208.892676,71.6444784 208.438676,71.7674784 207.965676,71.7764784 C207.492676,71.7864784 207.151676,71.6274784 206.939676,71.2994784 L206.030676,69.7234784 C204.683676,67.6404784 202.852676,66.2894784 200.538676,65.6724784 C198.222676,65.0564784 195.715676,65.0254784 193.019676,65.5834784 C190.321676,66.1424784 187.718676,67.1054784 185.212676,68.4704784 C184.448676,68.8864784 183.684676,69.3584784 182.919676,69.8844784 C175.709676,74.9194784 170.146676,81.7354784 166.236676,90.3314784 C162.932676,97.5894784 160.912676,104.985478 160.148676,112.513478 C157.417676,121.388478 154.734676,126.491478 152.098676,127.798478 L151.560676,127.983478 C150.245676,128.308478 149.166676,127.781478 148.324676,126.404478 C146.945676,124.149478 146.054676,120.101478 145.655676,114.259478 C145.353676,108.696478 145.465676,102.982478 145.988676,97.1174784 C146.751676,89.2854784 148.055676,83.2254784 149.903676,78.9354784 C152.037676,74.2864784 156.202676,70.4274784 162.401676,67.3554784 C164.061676,66.5334784 166.310676,65.5544784 169.149676,64.4194784 L175.880676,61.9814784 C177.485676,61.1864784 178.609676,59.8414784 179.252676,57.9444784 C180.018676,54.9524784 179.712676,52.3294784 178.333676,50.0744784 C178.026676,49.5734784 177.583676,49.0864784 177.005676,48.6104784 C175.608676,47.5064784 174.025676,47.3934784 172.254676,48.2714784 L152.881676,58.6874784 C153.931676,53.9234784 154.599676,50.7084784 154.880676,49.0454784 C155.340676,46.9674784 155.123676,45.1984784 154.229676,43.7354784 C152.876676,41.5234784 149.983676,40.1544784 145.552676,39.6294784 C140.516676,39.2964784 136.034676,40.1024784 132.105676,42.0494784 C128.285676,43.9414784 125.836676,46.5984784 124.755676,50.0164784 C124.261676,52.2764784 123.965676,54.6814784 123.866676,57.2314784 L123.394676,73.7904784 C123.445676,73.8744784 121.698676,74.7924784 118.156676,76.5484784 L111.434676,79.8794784 C108.168676,81.4974784 105.868676,82.6924784 104.536676,83.4604784 C103.540676,83.9534784 102.851676,84.5954784 102.468676,85.3834784 C101.740676,87.3764784 101.888676,89.2084784 102.909676,90.8784784 C103.548676,91.9224784 104.381676,92.4624784 105.412676,92.4954784 C105.488676,92.6194784 106.545676,92.3144784 108.582676,91.5764784 C110.619676,90.8404784 112.224676,90.3714784 113.399676,90.1694784 C116.797676,89.3564784 119.121676,89.9734784 120.372676,92.0184784 C121.113676,93.2304784 121.620676,95.1824784 121.897676,97.8734784 C122.096676,101.855478 121.961676,107.881478 121.488676,115.951478 C121.194676,122.899478 121.130676,128.956478 121.298676,134.123478 C121.384676,136.749478 121.615676,139.278478 121.984676,141.713478 C121.119676,148.176478 117.871676,152.610478 112.177676,154.960478 C111.047676,155.369478 109.907676,155.696478 108.760676,155.941478 C105.563676,156.343478 102.620676,156.240478 99.9316761,155.631478 C97.2416761,155.023478 94.4756761,154.188478 91.6326761,153.126478 C87.5016761,151.510478 82.3626761,150.192478 76.2166761,149.175478 C75.1276761,149.053478 74.3826761,148.558478 73.9816761,147.691478 C73.6996761,146.835478 73.8776761,146.045478 74.5186761,145.322478 C80.9666761,139.681478 85.3496761,132.859478 87.6656761,124.855478 C89.9806761,116.852478 91.1036761,108.626478 91.0346761,100.173478 C90.9636761,91.7244784 90.5626761,83.9834784 89.8306761,76.9504784 C89.3836761,72.2654784 89.1146761,68.2794784 89.0266761,64.9924784 C89.0036761,64.2004784 89.3436761,63.5714784 90.0476761,63.1094784 C93.5376761,60.8674784 97.1266761,57.8114784 100.811676,53.9404784 C104.494676,50.0714784 107.621676,45.6444784 110.187676,40.6594784 C112.753676,35.6764784 114.075676,30.4174784 114.153676,24.8854784 C114.130676,20.9984784 113.374676,17.4424784 111.883676,14.2194784 C109.122676,8.25547839 104.723676,4.14047839 98.6876761,1.87547839 C91.9916761,-0.573521608 85.0296761,-0.623521608 77.8056761,1.72747839 L75.9666761,2.40047839 C69.9016761,4.90447839 64.9046761,9.34447839 60.9746761,15.7214784 C58.1756761,20.9464784 56.7486761,26.8764784 56.6976761,33.5144784 C56.6446761,40.1544784 57.0456761,46.9934784 57.8946761,54.0344784 L58.7076761,62.2924784 C58.7946761,64.0914784 54.4086761,66.8174784 45.5516761,70.4734784 C43.0956761,71.4864784 40.5246761,72.4344784 37.8356761,73.3134784 C34.9766761,74.3224784 32.1506761,75.4034784 29.3586761,76.5554784 C26.5666761,77.7074784 23.7836761,78.9424784 21.0106761,80.2574784 C15.5116761,82.8714784 10.7366761,86.3034784 6.68367614,90.5554784 C3.38967614,94.8364784 1.32667614,99.2974784 0.493676143,103.938478 C-0.538323857,109.636478 0.0476761434,114.865478 2.25167614,119.628478 C3.43267614,122.179478 5.02567614,124.385478 7.03567614,126.248478 C10.4166761,129.093478 14.1526761,130.787478 18.2476761,131.332478 C22.3406761,131.878478 26.3376761,131.345478 30.2366761,129.736478 C35.6776761,127.491478 38.0616761,125.274478 37.3936761,123.086478 L36.9216761,122.250478 C36.2386761,121.271478 35.6636761,120.276478 35.1956761,119.266478 C34.9296761,118.689478 34.6966761,118.127478 34.4996761,117.577478 C33.0806761,112.778478 33.7286761,108.198478 36.4406761,103.841478 C39.1556761,99.4844784 42.5996761,95.6564784 46.7786761,92.3554784 C50.9556761,89.0564784 54.5336761,86.5334784 57.5106761,84.7894784 L57.9096761,84.5394784 C59.3056761,83.9634784 60.3036761,84.3244784 60.9046761,85.6224784 C61.0386761,85.9114784 61.1146761,86.1384784 61.1336761,86.3014784 C61.9656761,97.0174784 61.9336761,106.828478 61.0386761,115.733478 C60.1436761,124.641478 57.8026761,132.153478 54.0116761,138.272478 C50.2216761,144.392478 44.6676761,148.961478 37.3516761,151.981478 C34.9696761,152.908478 32.4016761,153.737478 29.6466761,154.473478 C29.2386761,154.585478 28.7696761,154.749478 28.2406761,154.968478 C25.2556761,156.200478 23.4276761,158.072478 22.7556761,160.583478 C21.8926761,163.920478 22.3846761,167.584478 24.2326761,171.577478 C25.8356761,175.040478 28.0826761,178.038478 30.9736761,180.568478 C34.5616761,183.613478 38.2606761,184.608478 42.0726761,183.550478 L42.5776761,183.342478 C43.7326761,182.865478 44.8386761,182.093478 45.8936761,181.028478 C47.7366761,179.065478 49.3706761,176.899478 50.7996761,174.535478 C52.0226761,172.596478 53.3076761,170.847478 54.6516761,169.292478 C55.9956761,167.735478 57.5086761,166.609478 59.1946761,165.913478 C61.4566761,164.980478 63.9976761,165.391478 66.8186761,167.150478 C69.2866761,168.765478 72.0116761,170.906478 74.9946761,173.572478 C77.9766761,176.237478 81.3146761,178.899478 85.0126761,181.556478 C96.8386761,190.139478 108.096676,192.226478 118.783676,187.815478 C122.442676,186.305478 125.715676,184.209478 128.602676,181.528478 C131.833676,178.476478 134.203676,174.861478 135.711676,170.687478 C136.890676,166.928478 137.410676,163.294478 137.313676,159.777478 C141.229676,159.841478 144.898676,159.035478 148.316676,157.341478 L148.980676,157.012478 C151.248676,155.888478 153.260676,154.401478 155.014676,152.553478 C156.248676,151.505478 157.671676,149.468478 159.280676,146.439478 C159.781676,145.375478 160.060676,144.829478 160.115676,144.801478 C161.264676,142.048478 162.312676,139.108478 163.272676,136.003478 C163.676676,136.801478 164.108676,137.573478 164.583676,138.306478 C166.538676,141.331478 169.106676,143.507478 172.289676,144.839478 C175.471676,146.172478 179.273676,146.380478 183.691676,145.464478 C186.646676,144.793478 189.269676,143.833478 191.558676,142.586478 C194.992676,140.714478 197.736676,138.349478 199.793676,135.487478 C201.849676,132.627478 203.423676,129.532478 204.514676,126.202478 C205.604676,122.873478 206.385676,119.520478 206.854676,116.142478 C207.323676,112.765478 207.674676,109.603478 207.909676,106.658478 L208.387676,101.756478 C208.560676,101.110478 208.944676,100.624478 209.545676,100.297478 C210.089676,100.000478 210.694676,99.8504784 211.356676,99.8494784 C212.018676,99.8474784 212.467676,100.030478 212.704676,100.397478 C212.784676,100.520478 212.822676,100.693478 212.819676,100.916478 C212.584676,107.508478 213.761676,112.806478 216.350676,116.810478 C219.309676,121.387478 224.054676,122.971478 230.589676,121.565478 C232.948676,120.998478 235.083676,120.194478 236.991676,119.154478 C240.424676,117.284478 243.199676,114.736478 245.314676,111.510478 C247.430676,108.286478 249.073676,104.642478 250.242676,100.579478 C251.411676,96.5174784 252.292676,92.2394784 252.887676,87.7424784 C253.482676,83.2474784 253.989676,78.7014784 254.410676,74.1074784 C254.738676,70.2834784 255.130676,66.5604784 255.591676,62.9394784 C255.680676,62.3924784 255.606676,61.9364784 255.368676,61.5684784" id="Fill-1" />
            <path d="M158.109676,209.037678 C158.234676,211.841678 158.115676,214.820678 157.758676,217.969678 C157.400676,221.122678 156.823676,223.965678 156.026676,226.501678 C155.232676,229.036678 154.247676,230.593678 153.071676,231.172678 C152.851676,231.280678 152.628676,231.347678 152.405676,231.369678 C151.433676,231.411678 150.664676,230.957678 150.101676,230.010678 C149.015676,228.183678 148.548676,225.219678 148.700676,221.119678 C148.852676,217.020678 149.445676,213.087678 150.480676,209.316678 C151.516676,205.547678 152.841676,203.265678 154.456676,202.470678 C154.970676,202.216678 155.522676,202.184678 156.109676,202.377678 C156.415676,202.489678 156.686676,202.749678 156.928676,203.155678 C157.591676,204.271678 157.986676,206.232678 158.109676,209.037678 M96.1566761,229.039678 C96.3876761,225.846678 97.0086761,222.697678 98.0106761,219.597678 C99.0866761,216.180678 100.504676,214.086678 102.266676,213.320678 C103.243676,212.895678 103.965676,213.122678 104.429676,213.999678 C105.297676,215.638678 105.590676,218.243678 105.318676,221.816678 C105.016676,225.186678 104.332676,228.437678 103.263676,231.564678 C102.191676,234.692678 100.940676,236.567678 99.5076761,237.191678 C98.9206761,237.446678 98.3236761,237.455678 97.7166761,237.215678 C97.4296761,237.122678 97.1766761,236.873678 96.9596761,236.464678 C96.1866761,235.003678 95.9176761,232.529678 96.1566761,229.039678 M263.555676,157.490678 C263.189676,156.945678 262.466676,156.701678 261.388676,156.758678 C260.307676,156.817678 259.380676,157.059678 258.612676,157.484678 C258.020676,157.811678 257.648676,158.226678 257.488676,158.729678 C257.160676,160.279678 256.848676,161.946678 256.551676,163.728678 C256.112676,166.129678 255.632676,168.500678 255.119676,170.836678 C254.604676,173.175678 253.987676,175.218678 253.264676,176.967678 C252.540676,178.715678 251.612676,179.903678 250.477676,180.530678 C250.071676,180.755678 249.624676,180.856678 249.142676,180.833678 C248.661676,180.810678 248.288676,180.601678 248.024676,180.207678 C247.314676,179.148678 246.986676,177.731678 247.040676,175.959678 C247.093676,174.186678 247.281676,172.195678 247.601676,169.985678 C248.713676,163.021678 248.467676,158.344678 246.864676,155.953678 C245.058676,153.260678 241.959676,151.767678 237.570676,151.477678 C233.181676,151.188678 228.922676,152.183678 224.796676,154.465678 C223.208676,155.344678 221.711676,156.400678 220.302676,157.636678 C217.650676,160.264678 215.735676,163.845678 214.549676,168.380678 C213.364676,172.915678 212.519676,177.584678 212.010676,182.386678 C211.866676,183.006678 211.521676,183.467678 210.978676,183.767678 C210.523676,184.018678 210.043676,184.138678 209.539676,184.127678 C209.034676,184.116678 208.691676,183.974678 208.509676,183.701678 C208.387676,183.519678 208.488676,182.467678 208.816676,180.544678 L209.684676,175.582678 C209.890676,174.224678 209.710676,173.120678 209.142676,172.273678 C208.005676,170.578678 205.841676,169.763678 202.653676,169.823678 C199.462676,169.888678 196.619676,170.609678 194.128676,171.987678 C192.813676,172.714678 191.758676,173.600678 190.966676,174.638678 C190.172676,175.679678 189.814676,176.863678 189.895676,178.187678 C190.706676,189.013678 191.023676,198.871678 190.845676,207.772678 C190.545676,209.672678 190.156676,211.351678 189.670676,212.782678 C189.127676,214.384678 188.396676,215.411678 187.479676,215.863678 C186.412676,216.388678 185.570676,216.125678 184.947676,215.076678 C183.740676,213.046678 182.868676,208.904678 182.332676,202.649678 C181.795676,196.395678 181.746676,189.802678 182.186676,182.870678 C182.624676,175.940678 183.675676,170.161678 185.340676,165.534678 C185.939676,163.665678 185.806676,162.002678 184.941676,160.547678 C183.554676,158.212678 180.898676,156.600678 176.974676,155.711678 C173.053676,154.821678 169.584676,155.118678 166.576676,156.601678 C163.822676,157.957678 162.170676,160.172678 161.621676,163.241678 C161.221676,165.845678 161.292676,169.079678 161.834676,172.947678 C162.376676,176.815678 163.127676,181.115678 164.087676,185.847678 C164.828676,189.726678 165.543676,193.770678 166.242676,197.976678 C166.221676,198.424678 166.008676,198.746678 165.606676,198.945678 C165.312676,199.090678 165.000676,199.145678 164.671676,199.111678 C164.342676,199.076678 164.097676,198.923678 163.936676,198.652678 L163.238676,197.356678 C162.212676,195.630678 160.881676,194.427678 159.241676,193.746678 C157.602676,193.067678 155.855676,192.823678 154.000676,193.014678 C152.145676,193.206678 150.372676,193.719678 148.683676,194.551678 C148.169676,194.804678 147.657676,195.101678 147.146676,195.439678 C142.335676,198.685678 138.744676,203.449678 136.381676,209.733678 C134.015676,216.017678 132.898676,222.605678 133.029676,229.496678 C133.033676,229.722678 133.050676,229.935678 133.057676,230.159678 C132.486676,232.112678 131.864676,234.077678 131.142676,236.065678 C129.215676,241.367678 126.728676,246.172678 123.680676,250.484678 C120.632676,254.795678 117.022676,257.859678 112.853676,259.672678 C108.487676,261.571678 104.404676,261.656678 100.599676,259.928678 C98.2676761,258.854678 96.5616761,257.293678 95.4776761,255.245678 C94.7966761,253.959678 94.4416761,252.456678 94.4176761,250.741678 C94.4626761,250.073678 94.8456761,249.583678 95.5606761,249.272678 C96.0816761,249.045678 96.6936761,249.141678 97.3956761,249.552678 C98.8506761,250.792678 100.578676,251.445678 102.577676,251.509678 C104.577676,251.575678 106.654676,251.141678 108.802676,250.206678 C112.125676,248.761678 115.273676,246.189678 118.242676,242.484678 C121.214676,238.782678 123.213676,234.115678 124.240676,228.486678 C125.579676,220.563678 124.872676,213.998678 122.115676,208.790678 C119.359676,203.584678 115.081676,200.351678 109.283676,199.095678 C103.488676,197.837678 97.4926761,198.555678 91.3026761,201.247678 C86.8056761,203.203678 80.5666761,206.363678 76.4616761,210.415678 C72.3526761,214.469678 68.9086761,219.584678 66.1246761,225.760678 C63.3416761,231.938678 61.5656761,239.152678 60.8026761,247.400678 C59.8016761,260.503678 61.7336761,271.647678 66.5956761,280.830678 C69.7536761,286.797678 74.0826761,291.303678 79.5826761,294.344678 C85.0796761,297.388678 93.6396761,297.969678 101.386676,296.397678 C104.466676,295.705678 107.345676,294.777678 110.015676,293.616678 C118.032676,290.130678 124.493676,284.729678 129.398676,277.415678 C134.306676,270.099678 137.938676,261.592678 140.301676,251.892678 C140.403676,251.473678 140.492676,251.047678 140.590676,250.625678 C141.308676,251.253678 142.059676,251.831678 142.878676,252.303678 C145.151676,253.612678 147.808676,254.108678 150.847676,253.791678 C152.880676,253.535678 154.666676,253.026678 156.207676,252.267678 C158.521676,251.127678 160.333676,249.545678 161.646676,247.520678 C162.959676,245.495678 163.924676,243.249678 164.546676,240.777678 C165.166676,238.305678 165.570676,235.788678 165.755676,233.225678 C165.941676,230.662678 166.051676,228.255678 166.093676,226.004678 L166.220676,222.267678 C166.313676,221.784678 166.562676,221.442678 166.964676,221.243678 C167.332676,221.062678 167.747676,221.000678 168.209676,221.057678 C168.668676,221.115678 168.991676,221.296678 169.172676,221.600678 C169.232676,221.702678 169.266676,221.839678 169.272676,222.010678 C169.384676,227.073678 170.426676,231.263678 172.397676,234.580678 C174.649676,238.369678 178.021676,240.011678 182.515676,239.504678 C184.135676,239.274678 185.587676,238.843678 186.874676,238.210678 C189.186676,237.071678 191.012676,235.352678 192.352676,233.050678 C193.541676,231.006678 194.440676,228.659678 195.083676,226.038678 C195.475676,226.142678 195.880676,226.234678 196.325676,226.288678 C198.421676,226.539678 200.740676,226.357678 203.277676,225.741678 C205.817676,225.124678 208.175676,224.216678 210.352676,223.011678 C212.392676,221.883678 214.074676,220.568678 215.399676,219.068678 C216.724676,217.568678 217.410676,215.976678 217.460676,214.288678 C217.481676,207.554678 217.827676,200.611678 218.500676,193.455678 C219.170676,186.299678 220.161676,179.995678 221.475676,174.537678 C222.788676,169.082678 224.374676,165.840678 226.234676,164.811678 C226.643676,164.585678 227.043676,164.488678 227.437676,164.519678 C227.830676,164.551678 228.130676,164.718678 228.332676,165.019678 C228.941676,165.928678 229.058676,167.679678 228.682676,170.272678 C228.309676,172.865678 227.801676,175.790678 227.159676,179.050678 C226.517676,182.310678 225.958676,185.533678 225.485676,188.719678 C225.011676,191.907678 224.861676,194.739678 225.031676,197.218678 C225.094676,198.054678 225.302676,198.872678 225.652676,199.674678 C226.005676,200.475678 226.373676,201.164678 226.758676,201.739678 C227.956676,203.525678 229.795676,204.696678 232.282676,205.250678 C234.766676,205.806678 237.483676,205.827678 240.437676,205.314678 C243.385676,204.804678 246.199676,203.808678 248.874676,202.328678 C251.640676,200.799678 253.992676,198.792678 255.931676,196.310678 C257.911676,193.514678 259.410676,190.028678 260.433676,185.853678 C261.457676,181.678678 262.182676,177.407678 262.612676,173.041678 C263.038676,168.677678 263.336676,164.809678 263.501676,161.440678 L263.702676,158.404678 C263.765676,158.037678 263.717676,157.732678 263.555676,157.490678" id="Fill-3" />
            <path d="M258.626476,136.908489 C259.509476,136.911478 259.898476,136.273478 259.900483,135.634478 C259.902476,134.995478 259.463476,134.355478 258.635476,134.352478 L256.978476,134.346478 L256.970476,136.902478 L258.626476,136.908489 Z M253.565476,131.512478 L259.251476,131.531478 C262.012476,131.540478 263.605476,133.570478 263.599476,135.593478 C263.593476,137.351478 262.650476,138.732478 261.600476,139.154478 L263.848476,143.475478 L260.094476,143.463478 L258.506476,139.730478 L256.960476,139.725478 L256.948476,143.452478 L253.525476,143.440478 L253.565476,131.512478 Z M266.960541,137.468478 C266.977476,132.462478 263.676476,128.936478 258.046476,128.918404 C252.635476,128.899478 249.311476,132.510478 249.295411,137.462478 C249.278476,142.308478 252.578476,146.047478 258.098476,146.065553 C263.674476,146.084478 266.943476,142.474478 266.960541,137.468478 L266.960541,137.468478 Z M245.541396,137.449478 C245.563476,130.740478 250.550476,125.432478 258.057476,125.45739 C265.896476,125.483478 270.792476,130.771478 270.769557,137.481478 C270.747476,144.084478 265.871476,149.500478 258.087476,149.473579 C250.469476,149.448478 245.518476,144.212478 245.541396,137.449478 L245.541396,137.449478 Z" id="Fill-5" />
        </g>
    </g>
</svg>