<?xml version='1.0' encoding='utf-8'?>
<svg xmlns="http://www.w3.org/2000/svg" xmlns:ns1="http://www.w3.org/1999/xlink" viewBox="0 0 515 203" version="1.1" fill="#ffffff">
    <title>Large</title>
    <defs>
        <polygon id="path-1" points="0 202.234 514.453 202.234 514.453 0 0 0" />
    </defs>
    <g id="Large" stroke="none" fill="none" fill-rule="evenodd" stroke-width="1">
        <g id="Group-18" transform="translate(0, 0.0004)">
            <polygon id="Fill-1" fill="#ffffff" points="187.0659 0 148.7629 202.234 161.2089 202.234 199.8239 0" />
            <polygon id="Fill-2" fill="#ffffff" points="208.177 72.4763 220.731 72.4763 220.731 118.8363 248.603 118.8363 248.603 130.6333 208.177 130.6333" />
            <polygon id="Fill-3" fill="#ffffff" points="258.3873 83.8582 242.6753 83.8582 242.6753 72.4762 286.7333 72.4762 286.7333 83.8582 270.9413 83.8582 270.9413 130.6332 258.3873 130.6332" />
            <g id="Group-17" transform="translate(0, -0.0004)">
                <path d="M312.6422,119.2516 C318.2492,119.2516 321.3282,115.2636 321.3282,110.4446 L321.3282,92.9146 C321.3282,88.1786 318.2492,83.8586 312.6422,83.8586 L304.9042,83.8586 L304.9042,119.2516 L312.6422,119.2516 Z M292.9032,72.4766 L312.6422,72.4766 C325.3542,72.4766 333.8032,81.3656 333.8032,93.3296 L333.8032,110.0296 C333.8032,121.9936 325.3542,130.6336 312.6422,130.6336 L292.9032,130.6336 L292.9032,72.4766 Z" id="Fill-4" fill="#ffffff" />
                <polygon id="Fill-6" fill="#ffffff" points="351.47 72.7169 388.001 72.7169 388.001 83.7839 364.411 83.7839 364.411 95.6709 384.48 95.6709 384.48 106.7369 364.411 106.7369 364.411 118.9519 388.821 118.9519 388.821 130.1009 351.47 130.1009" />
                <path d="M418.3083,118.8699 C424.1243,118.8699 427.3183,114.9349 427.3183,110.1799 L427.3183,92.8829 C427.3183,88.2109 424.1243,83.9479 418.3083,83.9479 L410.2813,83.9479 L410.2813,118.8699 L418.3083,118.8699 Z M397.8313,72.7169 L418.3083,72.7169 C431.4953,72.7169 440.2603,81.4879 440.2603,93.2929 L440.2603,109.7699 C440.2603,121.5749 431.4953,130.1009 418.3083,130.1009 L397.8313,130.1009 L397.8313,72.7169 Z" id="Fill-8" fill="#ffffff" />
                <polygon id="Fill-10" fill="#ffffff" points="448.2092 72.7169 462.4612 72.7169 481.2182 106.9829 481.7102 106.9829 481.7102 72.7169 494.2422 72.7169 494.2422 130.1009 479.8262 130.1009 461.2332 95.8349 460.7412 95.8349 460.7412 130.1009 448.2092 130.1009" />
                <mask id="mask-2" fill="#ffffff">
                    <use ns1:href="#path-1" />
                </mask>
                <g id="Clip-13" />
                <polygon id="Fill-12" fill="#ffffff" mask="url(#mask-2)" points="0 130.872 12.692 130.872 12.692 73.832 0 73.832" />
                <path d="M53.2426,108.8464 L59.5226,87.3884 L65.6276,108.8464 L53.2426,108.8464 Z M67.3686,73.4364 L51.1466,73.4364 L34.2266,130.8254 L46.9596,130.8254 L50.2776,120.1844 L68.5926,120.1844 L71.5546,130.8254 L84.8116,130.8254 L67.3686,73.4364 Z" id="Fill-14" fill="#ffffff" mask="url(#mask-2)" />
                <polygon id="Fill-15" fill="#ffffff" mask="url(#mask-2)" points="91.8397 73.6582 91.8397 130.4142 102.4797 130.4142 102.4797 98.7522 109.6947 130.4142 121.0107 130.4142 128.3397 98.7522 128.3397 130.4142 139.0017 130.4142 139.0017 73.6582 124.0847 73.6582 115.5187 112.4912 106.6857 73.6582" />
                <path d="M504.9436,58.8138058 C505.6356,58.8158 505.9396,58.3028 505.941602,57.7898 C505.9426,57.2758 505.5986,56.7618 504.9506,56.7598 L503.6536,56.7548 L503.6466,58.8098 L504.9436,58.8138058 Z M500.9806,54.4778 L505.4336,54.4928 C507.5956,54.4998 508.8436,56.1308 508.8376,57.7568 C508.8336,59.1688 508.0946,60.2798 507.2726,60.6188 L509.0326,64.0908 L506.0936,64.0818 L504.8496,61.0818 L503.6386,61.0778 L503.6286,64.0728 L500.9486,64.0638 L500.9806,54.4778 Z M511.469657,59.2628 C511.4836,55.2408 508.8996,52.4068 504.4896,52.3917496 C500.2526,52.3778 497.6496,55.2798 497.635551,59.2598 C497.6226,63.1548 500.2066,66.1588 504.5296,66.1728579 C508.8966,66.1878 511.4566,63.2868 511.469657,59.2628 L511.469657,59.2628 Z M494.695538,59.2498 C494.7146,53.8578 498.6196,49.5908 504.4986,49.61073 C510.6376,49.6318 514.4716,53.8808 514.453663,59.2728 C514.4356,64.5798 510.6166,68.9328 504.5206,68.9118757 C498.5546,68.8918 494.6776,64.6848 494.695538,59.2498 L494.695538,59.2498 Z" id="Fill-16" fill="#ffffff" mask="url(#mask-2)" />
            </g>
        </g>
    </g>
</svg>